<svg xmlns="http://www.w3.org/2000/svg" viewBox="0 0 128.56 128.56"><defs><style>.cls-1{fill:#fff;}.cls-2{fill:#444242;}</style></defs><g id="Layer_2" data-name="Layer 2"><g id="Objects"><circle class="cls-1" cx="64.28" cy="64.28" r="64.28"/><path class="cls-2" d="M76.32,14.35c.28,4.71-1.43,9.46-3.15,13.77A108.73,108.73,0,0,1,67.05,41a251.78,251.78,0,0,1-14.16,22.1c-.65.93-1.32,1.85-2,2.77.09.93.18,1.87.29,2.8l.18,1.48q0,.13,0,.21l0,.14q.83,5.9,2.13,11.71c.49,2.16,1,4.3,1.63,6.43l0,0A92.65,92.65,0,0,0,63.36,81q1.85-1.93,3.57-4c.62-.74,1.23-1.48,1.83-2.23l.41-.53.69-.91a91.76,91.76,0,0,0,6-9.13q1.33-2.32,2.52-4.72c.43-.86.85-1.73,1.25-2.6l.51-1.13c.08-.2.78-1.84.3-.7,1.09-2.59,3.23-4.15,6.16-3.49,2.4.55,4.5,3.73,3.49,6.15A98.93,98.93,0,0,1,65.58,92.78l.29.27c.31.21.62.43.94.63A24.69,24.69,0,0,0,69.3,95c.22.1.45.18.66.29l-.16-.08-.11,0c-.37-.14-1-.54.11,0l1.08.39c.82.29,1.66.54,2.5.77s1.94.48,2.92.67c.5.1,1,.2,1.51.28l1.18.15a77,77,0,0,0,12,.34c1.08-.06,2.15-.15,3.23-.26l1.3-.16.53-.07a60.52,60.52,0,0,0,6-1.22,51,51,0,0,0,5-1.63l.35-.15,1-.49a22,22,0,0,0,2-1.16c2.35-1.53,5.43-.39,6.84,1.79a4.34,4.34,0,0,1,.65,3A63,63,0,0,0,67.65,1.39a11.25,11.25,0,0,1,1.68.75C73.75,4.56,76.05,9.49,76.32,14.35Z"/><path class="cls-2" d="M74.74,106.9c-5.3-.92-11.35-2.85-15.72-6.47.56,1.48,1.13,2.95,1.73,4.41.06.16.13.31.19.46s.1.24.13.31l.6,1.36c.37.84.75,1.68,1.14,2.51q1.26,2.7,2.63,5.34,2.76,5.28,6,10.3a4.34,4.34,0,0,1,.62,1.64,62.86,62.86,0,0,0,43.07-25.29,38.79,38.79,0,0,1-12,4.67A72,72,0,0,1,74.74,106.9Z"/><path class="cls-2" d="M16.78,93.63q3.93-4.71,7.76-9.49c1.32-1.63,2.62-3.28,3.92-4.93.65-.83,1.31-1.66,1.95-2.5l.92-1.17.53-.69Q36.35,69,40.67,63a129.68,129.68,0,0,1,2.22-37.48c1.7-7.81,5-16,11.46-21.06a18.69,18.69,0,0,1,5.33-3A63,63,0,0,0,12.11,99.56a5.75,5.75,0,0,1,.9-1.43Q14.9,95.9,16.78,93.63Z"/><path class="cls-2" d="M42.45,77.35c-7.18,9.5-14.68,18.77-22.37,27.85a4.05,4.05,0,0,1-2.46,1.37,62.76,62.76,0,0,0,43.29,20.59c-.49-.81-1-1.63-1.45-2.45A144.19,144.19,0,0,1,42.45,77.35Z"/><path class="cls-2" d="M65.54,92.82l.15.11.07,0-.21-.16Z"/><path class="cls-2" d="M66,93.18l-.14-.13L65.76,93Z"/><path class="cls-2" d="M65.55,11.91s0,0-.12-.1l.06.09A.07.07,0,0,0,65.55,11.91Z"/><path class="cls-2" d="M64.59,11l.22.16C64.65,11,64.59,10.92,64.59,11Z"/><path class="cls-2" d="M65.41,11.77c-.2-.35-.2-.27-.13-.13l.15.17Z"/><path class="cls-2" d="M31.39,75.46c.29-.38.07-.09,0,.05Z"/><path class="cls-2" d="M62.43,28c.25-.54.48-1.08.72-1.62l.3-.73c.36-.91.71-1.83,1-2.75.72-2,1.2-4,1.74-6.11l0-.09a.76.76,0,0,1,0-.14c0-.22,0-.44,0-.67,0-.52,0-1,0-1.56,0,0,0-.13,0-.24a1.26,1.26,0,0,1,0-.21c-.1-.4-.24-.8-.34-1.2-.08-.16-.16-.31-.25-.46a3.79,3.79,0,0,0-.2-.34.62.62,0,0,1-.21-.26c-.13-.14-.28-.3-.37-.41a.5.5,0,0,1-.32-.27h0l-.29-.17-.1,0-.36-.08-.46,0-.54.17-.09,0-.41.21q-.37.2-.72.42c-.21.13-1,.78-.73.51-.55.47-1.08.94-1.59,1.46-.35.36-.68.72-1,1.1l-.52.67c-.15.21-.34.48-.38.55-.25.36-.48.73-.71,1.11Q56,18,55.41,19.22l-.56,1.2-.07.15a2.18,2.18,0,0,1-.08.24A46.46,46.46,0,0,0,53.07,26c-.45,1.75-.81,3.51-1.12,5.29-.16.9-.3,1.81-.44,2.71,0,.27-.13.94-.13.95-.05.36-.09.73-.14,1.09q-.78,6.56-.93,13.16c3.31-5,6.49-10.13,9.31-15.43Q61.11,30.92,62.43,28Z"/><path class="cls-2" d="M64.91,11.23H65a.59.59,0,0,1-.21-.12h0A.48.48,0,0,1,64.91,11.23Z"/><path class="cls-2" d="M63.87,10.66c.33,0,.88,0,0,0Z"/><path class="cls-2" d="M63.5,10.65h.12A.28.28,0,0,0,63.5,10.65Z"/><path class="cls-1" d="M65.49,11.9l-.06-.09-.15-.17A.62.62,0,0,0,65.49,11.9Z"/><path class="cls-1" d="M64.91,11.23a.48.48,0,0,0-.09-.1h0L64.59,11A.5.5,0,0,0,64.91,11.23Z"/><path class="cls-1" d="M69.69,95.18l.11,0C68.71,94.64,69.32,95,69.69,95.18Z"/><path class="cls-1" d="M65.55,92.81l.21.16.11.08-.29-.27Z"/></g></g></svg>