<svg xmlns="http://www.w3.org/2000/svg" viewBox="0 0 98.24 121.97"><defs><style>.cls-1{fill:#262626;}</style></defs><g id="Layer_2" data-name="Layer 2"><g id="Objects"><path class="cls-1" d="M7.86,96.59C18.52,84,28.8,71,38.28,57.51a232.82,232.82,0,0,0,13.06-20.4A100.7,100.7,0,0,0,57,25.19c1.59-4,3.18-8.49,2.84-12.89s-2.45-8.8-6.45-11C48.9-1.16,43.9.11,40,3.1c-6.12,4.73-9.35,12.1-11,19.48-3.47,15.5-3.18,32-.6,47.6a133.21,133.21,0,0,0,15.91,44.57q1.44,2.49,3,4.92a4.62,4.62,0,1,0,8-4.67q-3-4.66-5.53-9.58-1.23-2.36-2.35-4.76c-.4-.84-.78-1.68-1.15-2.52L45.76,97s-.29-.69-.1-.23-.15-.35-.18-.43a130.13,130.13,0,0,1-6.62-20.87q-1.23-5.39-2-10.88a3.47,3.47,0,0,1-.06-.45l-.15-1.27c-.12-1-.22-2-.32-3-.17-1.84-.3-3.68-.4-5.52a127.83,127.83,0,0,1,.75-21.87c0-.2.17-1.3.11-.87s.1-.67.12-.86c.14-.9.28-1.8.44-2.7.29-1.64.63-3.28,1-4.89a43.28,43.28,0,0,1,1.45-4.57c.07-.17.15-.35.21-.53.25-.64-.32.68,0,.06.17-.34.31-.68.48-1,.36-.73.74-1.45,1.16-2.14.19-.32.39-.64.6-1l.32-.46c.08-.11.54-.76.18-.28s.35-.41.46-.54c.28-.33.58-.65.88-1,.53-.54,1.09-1,1.66-1.52-.59.49.14-.09.38-.24a9.49,9.49,0,0,1,1.43-.78c-.73.3.12,0,.41-.05.13,0,.7,0,.17,0s.11,0,.18,0c1,.1-.63-.22.21.05.1,0,.67.2.09,0s.3.19.38.23c.71.39-.41-.46.17.13.25.26.49.51.72.78-.52-.59-.11-.12.1.24a4.37,4.37,0,0,0,.25.48c.33.51-.2-.69,0-.11.11.4.25.79.34,1.2,0,0,.1.77,0,.28s0,.26,0,.29c0,.45,0,.9,0,1.36,0,.22,0,.45,0,.67-.05.73.15-.58,0,.13-.51,1.93-1,3.83-1.65,5.71-.3.85-.63,1.7-1,2.54-.09.21-.17.42-.26.62.08-.18.31-.7-.06.15L47,25.37c-.81,1.79-1.69,3.55-2.61,5.28A205.38,205.38,0,0,1,32.28,50c-4.34,6.32-8.9,12.5-13.57,18.59l-.42.54-.19.25c.26-.34-.19.25-.2.25l-.42.54-2,2.5q-1.81,2.3-3.64,4.58-3.5,4.35-7.07,8.64l-3.5,4.17c-1.56,1.84-1.94,4.75,0,6.54,1.72,1.58,4.87,2,6.54,0Z"/><path class="cls-1" d="M63.64,49.31c.37-.88-.11.24-.19.42q-.24.57-.51,1.14c-.37.82-.76,1.63-1.16,2.43-.74,1.49-1.52,3-2.34,4.4a86.29,86.29,0,0,1-5.56,8.51l-.75,1c.58-.76-.25.32-.29.37-.52.65-1.05,1.3-1.58,1.93q-1.6,1.91-3.32,3.71a85.94,85.94,0,0,1-7.58,7.08c-1.67,1.39-1.54,3.85-.72,5.6C42.86,92.83,51.26,96,58.28,97.22a66.58,66.58,0,0,0,26.23-.68,35.57,35.57,0,0,0,11.43-4.47,4.62,4.62,0,1,0-4.67-8,20.29,20.29,0,0,1-1.81,1c-.29.15-.59.3-.9.44l-.52.24c-.8.38,1.09-.43.25-.11a47.21,47.21,0,0,1-4.8,1.57,54.75,54.75,0,0,1-5.42,1.1l-.56.09c-1,.15.89-.1.22,0l-1.3.15c-1.07.11-2.15.2-3.22.26q-2.89.16-5.79.08c-1.9-.06-3.78-.35-5.67-.45,1.51.08-.08,0-.46-.09l-1.38-.24c-.89-.18-1.77-.38-2.65-.61s-1.68-.48-2.5-.76l-1.07-.4c-.76-.28,0,.21.3.14a3.29,3.29,0,0,1-.67-.3A21.52,21.52,0,0,1,51.05,85c-.38-.24-.74-.5-1.12-.75s-.36-.5.42.33c-.15-.16-.34-.28-.5-.42-.56-.49-1-1.2-1.58-1.65.82.64.53.76.24.29-.11-.17-.23-.34-.33-.51a10.72,10.72,0,0,1-.56-1.06l-.72,5.6A91.07,91.07,0,0,0,72.56,51.77c.93-2.24-1-5.18-3.23-5.69-2.71-.62-4.69.83-5.69,3.23Z"/></g></g></svg>